<?xml version="1.0" encoding="utf-8"?>
<!-- Generator: Adobe Illustrator 25.2.0, SVG Export Plug-In . SVG Version: 6.00 Build 0)  -->
<svg version="1.1" id="Ebene_1" xmlns="http://www.w3.org/2000/svg" xmlns:xlink="http://www.w3.org/1999/xlink" x="0px" y="0px"
	 viewBox="0 0 343.5 102.3" style="enable-background:new 0 0 343.5 102.3;" xml:space="preserve">
<style type="text/css">
	.st0{fill:#FF6900;}
</style>
<g>
	<path d="M28.38,56.96c-5.89,0-10.85,0.46-15.36,1.66v39.27c0,0.83-0.46,1.38-1.38,1.38h-5.7c-0.18,0-1.47-0.55-1.47-1.38V59.17
		c0-3.86,1.1-5.06,4.6-6.53c4.32-1.75,12.14-2.85,16.92-2.85h1.47c0.18,0,0.37,0.09,0.74,0.09c0.37,0.09,1.2,0.28,1.2,1.38v4.51
		C29.39,56.41,29.21,56.96,28.38,56.96z"/>
	<path d="M75,78.66c0,0.64-0.64,1.38-1.29,1.38H40.61c0,4.87,1.01,7.63,3.13,9.93c2.58,2.94,6.81,3.95,12.88,3.95
		c5.7,0,9.38-1.2,13.33-2.3c0.18-0.09,0.37-0.09,0.55-0.09c0.46,0,0.74,0.28,1.01,0.92l1.01,3.77c0.09,0.09,0.09,0.28,0.09,0.37
		c0,0.55-0.37,0.92-1.01,1.1c-3.59,1.47-9.66,2.76-16,2.76c-18.03,0-23.82-8.09-23.82-25.29c0-15.91,3.59-25.38,21.7-25.38
		c9.56,0,15.17,2.85,18.3,7.82C74.36,61.83,75,67.54,75,74.16V78.66z M65.16,63.77c-1.47-5.7-4.87-7.45-11.77-7.45
		c-7.08,0-10.39,1.84-11.86,7.45c-0.83,3.13-0.92,6.53-1.01,9.84l25.75-0.09C66.18,70.2,65.99,66.98,65.16,63.77z"/>
	<path d="M99.01,100.46c-8,0-15.17-2.57-16.46-3.03c-0.28-0.18-0.74-0.37-0.74-1.01v-0.37L82.73,92c0.09-0.46,0.46-0.83,1.01-0.83
		c0.18,0,0.28,0,0.46,0.09c0.92,0.18,7.36,2.48,14.62,2.48c7.17,0,11.5-2.21,11.5-7.54c0-7.08-5.33-6.9-12.05-8
		c-4.78-0.74-16-1.66-16-13.89c0-12.23,10.76-14.53,18.94-14.53c7.82,0,13.79,1.66,14.9,1.93c0.74,0.18,1.01,0.64,1.01,1.1v0.18
		l-0.74,4.51c-0.09,0.55-0.55,0.64-0.92,0.64h-0.18c-1.29-0.09-7.82-1.66-13.06-1.66c-6.16,0-11.5,1.66-11.5,7.17
		c0,5.98,5.98,6.53,11.5,7.27c8.09,1.1,16.65,2.12,16.65,14.44C118.87,97.33,109.77,100.46,99.01,100.46z"/>
	<path d="M168.72,78.66c0,0.64-0.64,1.38-1.29,1.38h-33.11c0,4.87,1.01,7.63,3.13,9.93c2.58,2.94,6.81,3.95,12.88,3.95
		c5.7,0,9.38-1.2,13.33-2.3c0.18-0.09,0.37-0.09,0.55-0.09c0.46,0,0.74,0.28,1.01,0.92l1.01,3.77c0.09,0.09,0.09,0.28,0.09,0.37
		c0,0.55-0.37,0.92-1.01,1.1c-3.59,1.47-9.66,2.76-16,2.76c-18.03,0-23.82-8.09-23.82-25.29c0-15.91,3.59-25.38,21.7-25.38
		c9.56,0,15.17,2.85,18.3,7.82c2.58,4.23,3.22,9.93,3.22,16.55V78.66z M158.88,63.77c-1.47-5.7-4.87-7.45-11.77-7.45
		c-7.08,0-10.39,1.84-11.86,7.45c-0.83,3.13-0.92,6.53-1.01,9.84l25.75-0.09C159.89,70.2,159.71,66.98,158.88,63.77z"/>
	<path d="M208.36,99.17c-2.76,0.64-7.17,1.29-12.14,1.29c-8.37,0-21.34-0.46-21.34-15.36c0-12.14,6.99-12.88,15.63-14.35l17.29-2.85
		v-4.05c0-2.85-0.18-5.06-3.22-6.25c-1.66-0.64-4.23-0.92-8.09-0.92c-6.9,0-13.15,1.75-16.65,2.57c-0.18,0.09-0.46,0.09-0.64,0.09
		c-0.37,0-0.83-0.18-0.92-0.74l-0.92-4.51c-0.09-0.09-0.09-0.18-0.09-0.28c0-0.64,0.64-1.01,1.01-1.1
		c2.85-1.01,10.76-2.94,19.4-2.94c6.62,0,10.85,0.92,13.61,2.39c4.78,2.67,4.97,7.17,4.97,11.86V89.7
		C216.27,96.23,214.71,97.7,208.36,99.17z M207.81,74.34l-15.63,2.57c-4.23,0.64-8.46,1.01-8.46,7.91c0,8.74,7.08,9.29,12.69,9.29
		c3.95,0,8-0.46,11.4-1.56V74.34z"/>
	<path d="M250.57,56.96c-5.89,0-10.85,0.46-15.36,1.66v39.27c0,0.83-0.46,1.38-1.38,1.38h-5.7c-0.18,0-1.47-0.55-1.47-1.38V59.17
		c0-3.86,1.1-5.06,4.6-6.53c4.32-1.75,12.14-2.85,16.92-2.85h1.47c0.18,0,0.37,0.09,0.74,0.09c0.37,0.09,1.2,0.28,1.2,1.38v4.51
		C251.59,56.41,251.4,56.96,250.57,56.96z"/>
	<path d="M291.41,96.78c0,0.74-0.55,1.01-0.92,1.2c-2.3,1.1-8.83,2.39-14.53,2.39c-17.38,0-21.98-8.09-21.98-25.29
		c0-17.11,4.6-25.29,21.98-25.29c5.7,0,12.23,1.38,14.53,2.39c0.37,0.18,0.92,0.46,0.92,1.29c0,0.09,0,0.28-0.09,0.46l-0.74,3.59
		c-0.09,0.74-0.55,1.01-1.1,1.01h-0.55c-2.02-0.55-7.27-2.12-12.05-2.12c-10.76,0-14.07,4.6-14.07,18.67
		c0,14.07,3.31,18.67,14.07,18.67c4.78,0,10.02-1.29,12.05-1.84c0.18-0.09,0.37-0.09,0.55-0.09c0.55,0,0.92,0.28,1.1,1.01l0.74,3.4
		C291.41,96.41,291.41,96.6,291.41,96.78z"/>
	<path d="M338.77,99.26h-5.7c-0.92,0-1.47-0.55-1.47-1.38V64.13c0-5.7-2.12-7.82-8.18-7.82c-7.91,0-15.91,2.3-15.91,2.3v39.27
		c0,0.83-0.46,1.38-1.38,1.38h-5.7c-0.92,0-1.47-0.55-1.47-1.38V15.77c0-0.83,0.46-1.2,1.29-1.29l5.98-1.38h0.28
		c0.74,0,1.01,0.55,1.01,1.29v32.63l-0.92,5.33c4.87-1.38,12.42-2.58,17.66-2.58c10.76,0,15.82,3.31,15.82,13.24v34.85
		C340.06,98.71,339.6,99.26,338.77,99.26z"/>
</g>
<g>
	<path d="M57.99,29.75H43.77c-0.48,0-0.83-0.37-0.83-0.86v-1.78c-0.01-0.44,0.12-0.63,0.4-0.97l11.33-13.47H43.56
		c-0.48,0-0.83-0.37-0.83-0.86v-1.26c0-0.48,0.36-0.86,0.83-0.86h14.36c0.48,0,0.83,0.37,0.83,0.86v1.82c0,0.33-0.11,0.6-0.36,0.9
		L47.06,26.78H58c0.48,0,0.83,0.37,0.83,0.86v1.26C58.82,29.38,58.47,29.75,57.99,29.75z M86.01,30.12
		c1.03-0.01,1.78-0.23,2.06-0.56c0.1-0.12,0.15-0.26,0.14-0.4c-0.01-0.11-0.01-0.11-0.29-1.45l-0.01-0.03
		c-0.05-0.36-0.3-0.51-0.51-0.51h-0.03c0,0-0.26-0.01-0.51-0.01c-0.72-0.03-1.33-0.14-1.34-1.22V3.14c0-0.38-0.22-0.77-0.66-0.78
		h-0.12l-1.98,0.52c-0.34,0.04-0.68,0.29-0.67,0.74V26C82.12,28.65,83.5,30.12,86.01,30.12L86.01,30.12z M126.17,29.75h-1.78
		c-0.48,0-0.83-0.37-0.83-0.86V15.18c-0.03-2.32-0.71-2.97-3.15-3c-2.75,0-5.54,0.71-6.47,0.97V28.9c0,0.49-0.33,0.86-0.79,0.86
		h-1.81c-0.48,0-0.83-0.37-0.83-0.86V13.51c-0.03-1.42,0.11-2.41,2.08-3.06c1.89-0.67,5.51-1.23,7.91-1.23
		c4.55,0,6.51,1.7,6.51,5.63V28.9C126.99,29.38,126.64,29.75,126.17,29.75L126.17,29.75z M143.97,12.75c-0.66-0.18-2.5-0.6-4.58-0.6
		c-3.82,0.04-5.42,1.09-5.46,7.61c0.04,7.14,2.12,7.52,5.5,7.56v0.15V27.3c2.11,0,3.91-0.45,4.55-0.63V12.75H143.97z M144.91,29.49
		l-0.21,0.05c-1.12,0.29-2.67,0.7-5.38,0.7h-0.01c-7.45-0.01-8.93-3.87-8.93-10.53c0.01-7.63,2.37-10.48,8.71-10.49
		c2.24,0,3.78,0.3,4.88,0.57l-0.01-6.16c-0.01-0.27,0.11-0.63,0.74-0.74l1.98-0.52h0.11c0.45,0.01,0.62,0.42,0.62,0.78v23.12
		C147.44,27.72,147.28,28.97,144.91,29.49L144.91,29.49z M159.37,27.26c-4.88-0.03-5.13-2.6-5.17-7.52
		c0.04-4.95,0.27-7.54,5.17-7.56c4.88,0.03,5.14,2.61,5.17,7.56C164.5,24.66,164.25,27.24,159.37,27.26L159.37,27.26z M159.37,9.2
		c-8.06,0.01-8.74,5.44-8.75,10.53c0,5.07,0.68,10.48,8.75,10.49c8.06-0.01,8.74-5.4,8.75-10.49
		C168.11,14.42,167.42,9.22,159.37,9.2z M103.49,19.85c-0.81,0.01-4.72,0.07-6.28,0.41l-0.12,0.03c-1.75,0.4-3.13,0.72-3.16,3.38
		c0,3.35,2.5,3.65,5.06,3.67v0.15v-0.15c1.6,0,3.12-0.23,4.5-0.7L103.49,19.85L103.49,19.85z M106.95,14.96V25.6
		c0.04,2.64-0.63,3.49-3.23,4.1c-1.14,0.25-2.89,0.52-4.77,0.53c-2.78-0.01-8.56-0.01-8.58-6.42c-0.01-5.03,2.93-5.92,6.5-6.47
		c2.34-0.38,4.72-0.44,5.92-0.44h0.66V15.1c-0.01-1.2-0.01-1.93-1.11-2.35c-0.67-0.29-1.68-0.42-3.17-0.42
		c-2.46,0-4.68,0.56-6.14,0.94l-0.56,0.14c-0.05,0.01-0.12,0.03-0.21,0.04c-0.26,0-0.55-0.16-0.64-0.51l-0.01-0.03l-0.33-1.71v-0.1
		c0-0.4,0.29-0.64,0.56-0.72c1.18-0.45,4.29-1.16,7.66-1.16c2.45,0,4.23,0.33,5.42,1C106.97,11.31,106.95,13.34,106.95,14.96z
		 M74.57,26.64c-1.38,0.47-2.9,0.7-4.5,0.7v0.15v-0.15c-2.56-0.03-5.06-0.32-5.06-3.67c0.01-2.67,1.4-2.98,3.16-3.38l0.12-0.03
		c1.56-0.34,5.47-0.41,6.28-0.41V26.64z M75.99,10.22c-1.19-0.67-2.97-1-5.42-1c-3.36,0-6.47,0.71-7.66,1.16
		c-0.26,0.08-0.55,0.33-0.56,0.72v0.08l0.33,1.71l0.01,0.04c0.11,0.34,0.38,0.51,0.64,0.51c0.08,0,0.15-0.01,0.21-0.04l0.56-0.14
		c1.46-0.37,3.68-0.94,6.14-0.94c1.49,0,2.5,0.14,3.19,0.42c1.09,0.42,1.09,1.15,1.11,2.35v1.79h-0.67c-1.2,0-3.58,0.05-5.92,0.44
		c-3.57,0.56-6.52,1.44-6.5,6.48c0,6.4,5.78,6.42,8.58,6.42c1.89,0,3.62-0.29,4.77-0.53c2.6-0.62,3.25-1.46,3.23-4.1V14.96
		C78.01,13.34,78.01,11.31,75.99,10.22L75.99,10.22z"/>
	<path class="st0" d="M32.91,15.1c-2.34-2.94-5.59-5.78-9.88-8.36l-0.01-0.01c-4.29-2.52-8.34-3.98-11.99-4.58
		C8.75,1.76,7.66,2.2,7.17,2.5C6.67,2.79,5.76,3.54,4.94,5.74c-1.31,3.54-2.08,7.86-2.12,12.94v0.01c0.03,5.07,0.81,9.41,2.12,12.95
		c0.82,2.22,1.74,2.95,2.23,3.25c0.49,0.29,1.59,0.74,3.86,0.36c3.65-0.6,7.69-2.08,11.99-4.59l0.01-0.01
		c4.28-2.57,7.54-5.42,9.88-8.36c1.45-1.83,1.63-3.02,1.63-3.6C34.53,18.12,34.37,16.93,32.91,15.1"/>
</g>
</svg>
